REM GENRE "Genre"
REM DATE 2013
REM DISCID 123456789
PERFORMER "Artist_01"
TITLE "Album"

FILE "00 - (HTOA).flac" WAVE
TRACK 01 AUDIO
TITLE "Song01"
INDEX 00 00:00:00
FILE "01 - Song01.flac" WAVE
INDEX 01 00:00:00


FILE "02 - Song02.flac" WAVE
TRACK 02 AUDIO
TITLE "Song02"
INDEX 01 00:00:00

TRACK 03 AUDIO
TITLE "Song03"
INDEX 00 00:36:22
FILE "03 - Song03.flac" WAVE
INDEX 01 00:00:00

TRACK 04 AUDIO
TITLE "Song04"
INDEX 00 01:14:44
FILE "04 - Song04.flac" WAVE
INDEX 01 00:00:00
